<?xml version="1.0" encoding="UTF-8" standalone="no"?>
<svg
   xmlns:dc="http://purl.org/dc/elements/1.1/"
   xmlns:cc="http://creativecommons.org/ns#"
   xmlns:rdf="http://www.w3.org/1999/02/22-rdf-syntax-ns#"
   xmlns:svg="http://www.w3.org/2000/svg"
   xmlns="http://www.w3.org/2000/svg"
   xmlns:sodipodi="http://sodipodi.sourceforge.net/DTD/sodipodi-0.dtd"
   xmlns:inkscape="http://www.inkscape.org/namespaces/inkscape"
   width="26"
   height="26"
   viewBox="0 0 26 26"
   fill="none"
   version="1.1"
   id="svg8"
   sodipodi:docname="cue-stepper-testedit.svg"
   inkscape:export-filename="c:\temp\test.png"
   inkscape:export-xdpi="77.53846"
   inkscape:export-ydpi="77.53846"
   inkscape:version="0.92.4 (5da689c313, 2019-01-14)">
  <metadata
     id="metadata14">
    <rdf:RDF>
      <cc:Work
         rdf:about="">
        <dc:format>image/svg+xml</dc:format>
        <dc:type
           rdf:resource="http://purl.org/dc/dcmitype/StillImage" />
        <dc:title></dc:title>
      </cc:Work>
    </rdf:RDF>
  </metadata>
  <defs
     id="defs12" />
  <sodipodi:namedview
     pagecolor="#ffffff"
     bordercolor="#666666"
     borderopacity="1"
     objecttolerance="10"
     gridtolerance="10"
     guidetolerance="10"
     inkscape:pageopacity="0"
     inkscape:pageshadow="2"
     inkscape:window-width="1920"
     inkscape:window-height="1137"
     id="namedview10"
     showgrid="false"
     inkscape:zoom="3.2091769"
     inkscape:cx="153.8681"
     inkscape:cy="-23.456754"
     inkscape:window-x="1912"
     inkscape:window-y="-8"
     inkscape:window-maximized="1"
     inkscape:current-layer="svg8" />
  <path
     fill-rule="evenodd"
     clip-rule="evenodd"
     d="M19.5681 8.05852C19.5704 8.01405 19.5716 7.96924 19.5716 7.92411C19.5716 6.68714 18.6803 5.68439 17.5808 5.68439C16.4813 5.68439 15.59 6.68714 15.59 7.92411C15.59 7.96924 15.5911 8.01405 15.5935 8.05852H15.5807L17.5807 21.6312L19.5807 8.05852H19.5681Z"
     fill="black"
     id="path2" />
  <path
     fill-rule="evenodd"
     clip-rule="evenodd"
     d="M10.9225 12.5828C10.921 12.5531 10.9202 12.5232 10.9202 12.4931C10.9202 11.6685 11.5144 11 12.2474 11C12.9804 11 13.5746 11.6685 13.5746 12.4931C13.5746 12.5232 13.5738 12.5531 13.5723 12.5828H13.5807L12.2474 21.6312L10.9141 12.5828H10.9225Z"
     fill="black"
     id="path4" />
  <path
     fill-rule="evenodd"
     clip-rule="evenodd"
     d="M7.00601 15.1361C7.00489 15.1148 7.00433 15.0934 7.00433 15.0718C7.00433 14.4799 7.43086 14 7.95702 14C8.48318 14 8.90972 14.4799 8.90972 15.0718C8.90972 15.0934 8.90915 15.1148 8.90803 15.1361H8.91412L7.95705 21.6312L6.99999 15.1361H7.00601Z"
     fill="black"
     id="path6" />
</svg>
