<svg xmlns="http://www.w3.org/2000/svg" xmlns:xlink="http://www.w3.org/1999/xlink" viewBox="0 0 48 48"><defs><style>.cls-1{opacity:0.1;}.cls-2{opacity:0.3;}.cls-3,.cls-4,.cls-5,.cls-6,.cls-7{fill:none;stroke-linecap:round;stroke-miterlimit:10;}.cls-3{stroke:#000;}.cls-4,.cls-5,.cls-6,.cls-7{stroke-width:2.12px;stroke-dasharray:0 3;}.cls-4{stroke:url(#linear-gradient);}.cls-5{stroke:url(#linear-gradient-2);}.cls-6{stroke:url(#linear-gradient-3);}.cls-7{stroke:url(#linear-gradient-4);}</style><linearGradient id="linear-gradient" x1="13.26" y1="12.49" x2="28.46" y2="12.49" gradientUnits="userSpaceOnUse"><stop offset="0"/><stop offset="1" stop-opacity="0"/></linearGradient><linearGradient id="linear-gradient-2" x1="8.98" y1="31.96" x2="15.3" y2="21.02" xlink:href="#linear-gradient"/><linearGradient id="linear-gradient-3" x1="27.14" y1="31.5" x2="25.61" y2="40.12" xlink:href="#linear-gradient"/><linearGradient id="linear-gradient-4" x1="32.49" y1="21.42" x2="38.61" y2="21.42" xlink:href="#linear-gradient"/></defs><g id="Layer_6" data-name="Layer 6"><circle class="cls-1" cx="14.11" cy="33.88" r="4.93"/><circle class="cls-2" cx="14.11" cy="33.88" r="2.95"/><circle class="cls-1" cx="14.32" cy="14.09" r="4.93"/><circle class="cls-2" cx="14.32" cy="14.09" r="2.95"/><circle class="cls-1" cx="33.66" cy="14.33" r="4.93"/><circle class="cls-2" cx="33.66" cy="14.33" r="2.95"/><circle class="cls-1" cx="33.66" cy="33.7" r="4.93"/><circle class="cls-2" cx="33.66" cy="33.7" r="2.95"/><line class="cls-3" x1="33.61" y1="14.39" x2="14.35" y2="33.65"/><line class="cls-3" x1="33.61" y1="33.65" x2="14.35" y2="14.39"/><path class="cls-4" d="M14.32,14.33A15.83,15.83,0,0,1,27.4,11"/><path class="cls-5" d="M14.11,33.7a18.86,18.86,0,0,1-3.94-14.42"/><path class="cls-6" d="M33.55,33.7A18.89,18.89,0,0,1,19.2,37.91"/><path class="cls-7" d="M33.55,14.19a18.87,18.87,0,0,1,3.76,14.46"/><circle cx="23.93" cy="23.87" r="2.45"/></g></svg>