<svg xmlns="http://www.w3.org/2000/svg" xmlns:xlink="http://www.w3.org/1999/xlink" viewBox="0 0 48 48"><defs><style>.cls-1{opacity:0.1;}.cls-2{opacity:0.3;}.cls-3{fill:url(#linear-gradient);}</style><linearGradient id="linear-gradient" x1="24" y1="24.55" x2="24" y2="42.56" gradientUnits="userSpaceOnUse"><stop offset="0"/><stop offset="1" stop-opacity="0"/></linearGradient></defs><g id="Layer_6" data-name="Layer 6"><circle class="cls-1" cx="18.51" cy="27.33" r="3.82"/><circle class="cls-2" cx="18.51" cy="27.33" r="2.28"/><circle class="cls-1" cx="28.97" cy="28.48" r="3.82"/><circle class="cls-2" cx="28.97" cy="28.48" r="2.28"/><circle class="cls-1" cx="20.35" cy="36.97" r="3.82"/><circle class="cls-2" cx="20.35" cy="36.97" r="2.28"/><circle class="cls-1" cx="22.33" cy="20.49" r="3.82"/><circle class="cls-2" cx="22.33" cy="20.49" r="2.28"/><path class="cls-3" d="M23.79,41.5l-.85-15.89a1.06,1.06,0,1,1,2.12-.11v.11L24.21,41.5a.23.23,0,0,1-.22.2A.22.22,0,0,1,23.79,41.5Z"/><circle cx="26.68" cy="39.07" r="1.18"/><circle cx="28.97" cy="28.48" r="1.2"/><circle cx="22.33" cy="20.65" r="1.2"/><circle cx="20.35" cy="36.97" r="1.2"/><circle cx="27.21" cy="33.56" r="1.2"/><circle cx="18.51" cy="27.33" r="1.2"/><circle cx="19.72" cy="31.98" r="1.2"/><circle cx="27.86" cy="22.22" r="1.2"/><circle cx="20.35" cy="23.99" r="1.2"/><path d="M34.14,43.5H25.62V41H22.38V43.5H13.86a.5.5,0,0,0,0,1H34.14a.5.5,0,0,0,0-1Z"/></g></svg>